<svg className="github" viewBox="0 0 116.587 113.261">
                                <g id="github" transform="translate(-166.176 -13.395)">
                                    <g id="outline">
                                        <g id="dots">
                                            <path id="Path_161" data-name="Path 161"
                                                d="M275.459,87.394a4.305,4.305,0,1,1,6.088-.091A4.3,4.3,0,0,1,275.459,87.394Z"
                                                fill="#0099b2" />
                                            <path id="Path_162" data-name="Path 162"
                                                d="M168.632,58.464a4.305,4.305,0,1,1,6.088-.092A4.306,4.306,0,0,1,168.632,58.464Z"
                                                fill="#0099b2" />
                                        </g>
                                        <g id="halfs">
                                            <path id="Path_163" data-name="Path 163"
                                                d="M278.979,68.795c-.009,0-.019,0-.028.007a2.079,2.079,0,1,0,1.653-.022A56.638,56.638,0,0,0,175.594,40.6a1.972,1.972,0,0,0-1.1.148,2.031,2.031,0,1,0,2.707.961,1.9,1.9,0,0,0-.208-.278A55.009,55.009,0,0,1,278.979,68.795Z"
                                                fill="#0099b2" />
                                            <path id="Path_164" data-name="Path 164"
                                                d="M273.212,98.039a1.987,1.987,0,0,0,1.047-.156,2.032,2.032,0,1,0-2.708-.961,1.883,1.883,0,0,0,.243.323A54.984,54.984,0,0,1,169,69.658c.026-.011.054-.008.08-.02a2.031,2.031,0,1,0-2.707-.961,2,2,0,0,0,1,.952,56.613,56.613,0,0,0,105.836,28.41Z"
                                                fill="#0099b2" />
                                        </g>
                                    </g>
                                    <path id="body"
                                        d="M224.469,27.232a42.793,42.793,0,1,0,42.794,42.793A42.793,42.793,0,0,0,224.469,27.232Zm26.3,13.465a2.911,2.911,0,1,1-2.049,3.571A2.911,2.911,0,0,1,250.765,40.7ZM234.013,89.154v10.1c0,.952.553,2.088,2.365,1.781a36.706,36.706,0,0,1-23.151,0c1.781.307,2.364-.8,2.364-1.781V92.408c-10.255,2.211-12.374-4.36-12.374-4.36-1.688-4.267-4.114-5.4-4.114-5.4-3.316-2.273.277-2.211.277-2.211,3.684.246,5.649,3.776,5.649,3.776,3.285,5.65,8.6,4.022,10.716,3.071a7.766,7.766,0,0,1,2.333-4.913c-8.167-.952-16.795-4.114-16.795-18.238a14.221,14.221,0,0,1,3.808-9.886,13.147,13.147,0,0,1,.368-9.733s3.07-.983,10.132,3.776a35.294,35.294,0,0,1,9.211-1.259,35.711,35.711,0,0,1,9.242,1.259c7.031-4.759,10.1-3.776,10.1-3.776,2.027,5.066.768,8.811.369,9.733a14.225,14.225,0,0,1,3.807,9.886c0,14.155-8.628,17.286-16.825,18.207C232.816,83.473,234.013,85.715,234.013,89.154Zm-42.458-1.465a1.308,1.308,0,0,1,.234-.025,1.374,1.374,0,1,1-1.494,1.242,1.341,1.341,0,0,1,.295-.692A38.3,38.3,0,0,1,243.243,36.9a1.352,1.352,0,0,1,.935-.273,1.374,1.374,0,1,1-1.494,1.242c0-.007,0-.012.006-.019a37.2,37.2,0,0,0-51.135,49.843Zm7.014,10.742a2.912,2.912,0,1,1,2.049-3.571A2.911,2.911,0,0,1,198.569,98.431Zm52.543-.706a38.268,38.268,0,0,1-46.486,5.292,1.352,1.352,0,0,1-.9.255,1.374,1.374,0,1,1,1.494-1.242c0,.019-.013.034-.016.053a37.185,37.185,0,0,0,51.544-50.232,1.294,1.294,0,0,1-.272.029,1.374,1.374,0,1,1,1.494-1.242,1.331,1.331,0,0,1-.27.662A38.551,38.551,0,0,1,251.112,97.725Z"
                                        fill="#0099b2" />
                                </g>
                            </svg>