<svg className="linkedin"
                                viewBox="0 0 116.587 113.261">
                                <g id="linkedin" transform="translate(-23 -901)">
                                    <g id="outline" data-name="Group 13">
                                        <path id="Path_157" data-name="Path 157"
                                            d="M133.248,87.394a4.306,4.306,0,1,1,6.089-.091A4.306,4.306,0,0,1,133.248,87.394Z"
                                            transform="translate(-0.965 887.605)" fill="#0099b2" />
                                        <path id="Path_158" data-name="Path 158"
                                            d="M26.422,58.464a4.305,4.305,0,1,1,6.088-.092A4.3,4.3,0,0,1,26.422,58.464Z"
                                            transform="translate(-0.965 887.605)" fill="#0099b2" />
                                        <path id="Path_159" data-name="Path 159"
                                            d="M136.769,68.795c-.009,0-.019,0-.028.007a2.079,2.079,0,1,0,1.653-.022A56.638,56.638,0,0,0,33.384,40.6a1.972,1.972,0,0,0-1.1.148,2.031,2.031,0,1,0,2.707.961,1.974,1.974,0,0,0-.208-.278A55.009,55.009,0,0,1,136.769,68.795Z"
                                            transform="translate(-0.965 887.605)" fill="#0099b2" />
                                        <path id="Path_160" data-name="Path 160"
                                            d="M131,98.039a1.984,1.984,0,0,0,1.046-.156,2.032,2.032,0,1,0-2.707-.961,1.931,1.931,0,0,0,.242.323A54.984,54.984,0,0,1,26.791,69.658c.026-.011.054-.008.08-.02a2.031,2.031,0,1,0-2.708-.961,2,2,0,0,0,1,.952A56.613,56.613,0,0,0,131,98.039Z"
                                            transform="translate(-0.965 887.605)" fill="#0099b2" />
                                    </g>
                                    <path id="body"
                                        d="M42.794,85.587A42.8,42.8,0,0,1,26.137,3.363,42.8,42.8,0,0,1,59.451,82.224,42.525,42.525,0,0,1,42.794,85.587Zm-19.843-9.8h0a38.5,38.5,0,0,0,16.288,5.367c1.168.107,2.355.162,3.527.162A38.082,38.082,0,0,0,69.437,70.493a38.783,38.783,0,0,0,6.588-46.426,1.322,1.322,0,0,0,.27-.661,1.373,1.373,0,0,0-1.242-1.494c-.043,0-.086-.006-.128-.006a1.374,1.374,0,0,0-.124,2.742l.038,0a.824.824,0,0,0,.148-.018c.028-.005.057-.01.086-.014a36.618,36.618,0,0,1,4.2,11.535,37.752,37.752,0,0,1-3.332,23.6A36.93,36.93,0,0,1,56.718,77.5a37.023,37.023,0,0,1-13.952,2.714c-1.14,0-2.292-.053-3.429-.157a37.372,37.372,0,0,1-15.809-5.207.131.131,0,0,1,.008-.024.106.106,0,0,0,.008-.029A1.376,1.376,0,0,0,22.3,73.3c-.043,0-.086-.006-.129-.006a1.374,1.374,0,0,0-.123,2.742c.038,0,.076.005.113.005a1.384,1.384,0,0,0,.786-.259ZM16.133,65.476a2.912,2.912,0,1,0,2.81,2.152A2.919,2.919,0,0,0,16.133,65.476ZM42.745,4.716A38.306,38.306,0,0,0,8.914,60.982a1.318,1.318,0,0,0-.293.692,1.373,1.373,0,0,0,1.242,1.494c.042,0,.084.006.126.006a1.374,1.374,0,0,0,.126-2.742h-.031a.647.647,0,0,0-.114.013.832.832,0,0,1-.089.012A37.2,37.2,0,0,1,42.743,5.816c1.139,0,2.294.053,3.43.158a37.42,37.42,0,0,1,14.84,4.64.029.029,0,0,1,0,.01.026.026,0,0,0,0,.009,1.374,1.374,0,0,0,1.242,1.494c.042,0,.085.006.127.006A1.374,1.374,0,0,0,62.5,9.391c-.04,0-.08-.006-.119-.006a1.371,1.371,0,0,0-.817.279A38.566,38.566,0,0,0,46.274,4.878C45.1,4.77,43.917,4.716,42.745,4.716Zm7.366,35.343a3.9,3.9,0,0,1,3.446,1.67,7.735,7.735,0,0,1,1.04,4.355V60.341h8.861V45.06c0-7.509-3.813-11.993-10.2-11.993a8.756,8.756,0,0,0-7.986,4.4V33.694H36.413c.118,2.473,0,26.406,0,26.647h8.86V45.458a5.874,5.874,0,0,1,.293-2.159,5.534,5.534,0,0,1,1.6-2.217A4.549,4.549,0,0,1,50.111,40.059ZM22.657,33.694V60.341h8.858V33.694Zm4.487-12.845c-2.952,0-5.014,1.893-5.014,4.6a4.6,4.6,0,0,0,4.9,4.605h.058c2.951,0,5.012-1.894,5.012-4.605A4.6,4.6,0,0,0,27.144,20.849Zm42.71-7.487a2.912,2.912,0,1,0,2.809,2.152A2.916,2.916,0,0,0,69.854,13.363Z"
                                        transform="translate(38.5 914.837)" fill="#0099b2" stroke="rgba(0,0,0,0)"
                                        stroke-width="1" />
                                </g>
                            </svg>